<svg width="1914" height="458" viewBox="0 0 1914 458" fill="none" xmlns="http://www.w3.org/2000/svg">
<rect y="40" width="10" height="242" rx="5" fill="url(#paint0_linear_77_139)"/>
<rect x="640" y="85" width="10" height="242" rx="5" fill="url(#paint1_linear_77_139)"/>
<rect x="1280" y="85" width="10" height="242" rx="5" fill="url(#paint2_linear_77_139)"/>
<rect width="10" height="242" rx="5" transform="matrix(-1 0 0 1 154 40)" fill="url(#paint3_linear_77_139)"/>
<rect width="10" height="242" rx="5" transform="matrix(-1 0 0 1 794 40)" fill="url(#paint4_linear_77_139)"/>
<rect width="10" height="242" rx="5" transform="matrix(-1 0 0 1 1434 40)" fill="url(#paint5_linear_77_139)"/>
<rect x="16" y="30" width="10" height="242" rx="5" fill="url(#paint6_linear_77_139)"/>
<rect x="656" y="65" width="10" height="242" rx="5" fill="url(#paint7_linear_77_139)"/>
<rect x="1296" y="65" width="10" height="242" rx="5" fill="url(#paint8_linear_77_139)"/>
<rect width="10" height="242" rx="5" transform="matrix(-1 0 0 1 138 30)" fill="url(#paint9_linear_77_139)"/>
<rect width="10" height="242" rx="5" transform="matrix(-1 0 0 1 778 30)" fill="url(#paint10_linear_77_139)"/>
<rect width="10" height="242" rx="5" transform="matrix(-1 0 0 1 1418 30)" fill="url(#paint11_linear_77_139)"/>
<rect x="32" y="20" width="10" height="242" rx="5" fill="url(#paint12_linear_77_139)"/>
<rect x="672" y="50" width="10" height="242" rx="5" fill="url(#paint13_linear_77_139)"/>
<rect x="1312" y="50" width="10" height="242" rx="5" fill="url(#paint14_linear_77_139)"/>
<rect width="10" height="242" rx="5" transform="matrix(-1 0 0 1 122 20)" fill="url(#paint15_linear_77_139)"/>
<rect width="10" height="242" rx="5" transform="matrix(-1 0 0 1 762 20)" fill="url(#paint16_linear_77_139)"/>
<rect width="10" height="242" rx="5" transform="matrix(-1 0 0 1 1402 20)" fill="url(#paint17_linear_77_139)"/>
<rect x="48" y="10" width="10" height="242" rx="5" fill="url(#paint18_linear_77_139)"/>
<rect x="688" y="30" width="10" height="242" rx="5" fill="url(#paint19_linear_77_139)"/>
<rect x="1328" y="30" width="10" height="242" rx="5" fill="url(#paint20_linear_77_139)"/>
<rect width="10" height="242" rx="5" transform="matrix(-1 0 0 1 106 10)" fill="url(#paint21_linear_77_139)"/>
<rect width="10" height="242" rx="5" transform="matrix(-1 0 0 1 746 10)" fill="url(#paint22_linear_77_139)"/>
<rect width="10" height="242" rx="5" transform="matrix(-1 0 0 1 1386 10)" fill="url(#paint23_linear_77_139)"/>
<rect x="64" width="10" height="242" rx="5" fill="url(#paint24_linear_77_139)"/>
<rect x="704" y="10" width="10" height="242" rx="5" fill="url(#paint25_linear_77_139)"/>
<rect x="1344" y="10" width="10" height="242" rx="5" fill="url(#paint26_linear_77_139)"/>
<rect x="80" width="10" height="242" rx="5" fill="url(#paint27_linear_77_139)"/>
<rect x="720" width="10" height="242" rx="5" fill="url(#paint28_linear_77_139)"/>
<rect x="1360" width="10" height="242" rx="5" fill="url(#paint29_linear_77_139)"/>
<rect x="160" y="58" width="10" height="242" rx="5" fill="url(#paint30_linear_77_139)"/>
<rect width="10" height="242" rx="5" transform="matrix(-1 0 0 1 314 75)" fill="url(#paint31_linear_77_139)"/>
<rect x="176" y="77" width="10" height="242" rx="5" fill="url(#paint32_linear_77_139)"/>
<rect width="10" height="242" rx="5" transform="matrix(-1 0 0 1 298 60)" fill="url(#paint33_linear_77_139)"/>
<rect x="192" y="106" width="10" height="242" rx="5" fill="url(#paint34_linear_77_139)"/>
<rect width="10" height="242" rx="5" transform="matrix(-1 0 0 1 282 40)" fill="url(#paint35_linear_77_139)"/>
<rect x="208" y="95" width="10" height="242" rx="5" fill="url(#paint36_linear_77_139)"/>
<rect width="10" height="242" rx="5" transform="matrix(-1 0 0 1 266 40)" fill="url(#paint37_linear_77_139)"/>
<rect x="224" y="65" width="10" height="242" rx="5" fill="url(#paint38_linear_77_139)"/>
<rect x="240" y="60" width="10" height="242" rx="5" fill="url(#paint39_linear_77_139)"/>
<rect x="800" y="40" width="10" height="242" rx="5" fill="url(#paint40_linear_77_139)"/>
<rect width="10" height="242" rx="5" transform="matrix(-1 0 0 1 954 75)" fill="url(#paint41_linear_77_139)"/>
<rect x="816" y="60" width="10" height="242" rx="5" fill="url(#paint42_linear_77_139)"/>
<rect width="10" height="242" rx="5" transform="matrix(-1 0 0 1 938 60)" fill="url(#paint43_linear_77_139)"/>
<rect x="832" y="65" width="10" height="242" rx="5" fill="url(#paint44_linear_77_139)"/>
<rect width="10" height="242" rx="5" transform="matrix(-1 0 0 1 922 40)" fill="url(#paint45_linear_77_139)"/>
<rect x="848" y="75" width="10" height="242" rx="5" fill="url(#paint46_linear_77_139)"/>
<rect width="10" height="242" rx="5" transform="matrix(-1 0 0 1 906 40)" fill="url(#paint47_linear_77_139)"/>
<rect x="864" y="65" width="10" height="242" rx="5" fill="url(#paint48_linear_77_139)"/>
<rect x="880" y="60" width="10" height="242" rx="5" fill="url(#paint49_linear_77_139)"/>
<rect x="1440" y="40" width="10" height="242" rx="5" fill="url(#paint50_linear_77_139)"/>
<rect width="10" height="242" rx="5" transform="matrix(-1 0 0 1 1594 75)" fill="url(#paint51_linear_77_139)"/>
<rect x="1456" y="60" width="10" height="242" rx="5" fill="url(#paint52_linear_77_139)"/>
<rect width="10" height="242" rx="5" transform="matrix(-1 0 0 1 1578 60)" fill="url(#paint53_linear_77_139)"/>
<rect x="1472" y="65" width="10" height="242" rx="5" fill="url(#paint54_linear_77_139)"/>
<rect width="10" height="242" rx="5" transform="matrix(-1 0 0 1 1562 40)" fill="url(#paint55_linear_77_139)"/>
<rect x="1488" y="75" width="10" height="242" rx="5" fill="url(#paint56_linear_77_139)"/>
<rect width="10" height="242" rx="5" transform="matrix(-1 0 0 1 1546 40)" fill="url(#paint57_linear_77_139)"/>
<rect x="1504" y="65" width="10" height="242" rx="5" fill="url(#paint58_linear_77_139)"/>
<rect x="1520" y="60" width="10" height="242" rx="5" fill="url(#paint59_linear_77_139)"/>
<rect x="320" y="106" width="10" height="242" rx="5" fill="url(#paint60_linear_77_139)"/>
<rect width="10" height="242" rx="5" transform="matrix(-1 0 0 1 474 131)" fill="url(#paint61_linear_77_139)"/>
<rect x="336" y="151" width="10" height="242" rx="5" fill="url(#paint62_linear_77_139)"/>
<rect width="10" height="242" rx="5" transform="matrix(-1 0 0 1 458 151)" fill="url(#paint63_linear_77_139)"/>
<rect x="352" y="176" width="10" height="242" rx="5" fill="url(#paint64_linear_77_139)"/>
<rect width="10" height="242" rx="5" transform="matrix(-1 0 0 1 442 171)" fill="url(#paint65_linear_77_139)"/>
<rect x="368" y="216" width="10" height="242" rx="5" fill="url(#paint66_linear_77_139)"/>
<rect width="10" height="242" rx="5" transform="matrix(-1 0 0 1 426 186)" fill="url(#paint67_linear_77_139)"/>
<rect x="384" y="196" width="10" height="242" rx="5" fill="url(#paint68_linear_77_139)"/>
<rect x="400" y="206" width="10" height="242" rx="5" fill="url(#paint69_linear_77_139)"/>
<rect x="960" y="106" width="10" height="242" rx="5" fill="url(#paint70_linear_77_139)"/>
<rect width="10" height="242" rx="5" transform="matrix(-1 0 0 1 1114 131)" fill="url(#paint71_linear_77_139)"/>
<rect x="976" y="151" width="10" height="242" rx="5" fill="url(#paint72_linear_77_139)"/>
<rect width="10" height="242" rx="5" transform="matrix(-1 0 0 1 1098 151)" fill="url(#paint73_linear_77_139)"/>
<rect x="992" y="176" width="10" height="242" rx="5" fill="url(#paint74_linear_77_139)"/>
<rect width="10" height="242" rx="5" transform="matrix(-1 0 0 1 1082 171)" fill="url(#paint75_linear_77_139)"/>
<rect x="1008" y="216" width="10" height="242" rx="5" fill="url(#paint76_linear_77_139)"/>
<rect width="10" height="242" rx="5" transform="matrix(-1 0 0 1 1066 186)" fill="url(#paint77_linear_77_139)"/>
<rect x="1024" y="196" width="10" height="242" rx="5" fill="url(#paint78_linear_77_139)"/>
<rect x="1040" y="206" width="10" height="242" rx="5" fill="url(#paint79_linear_77_139)"/>
<rect x="1600" y="106" width="10" height="242" rx="5" fill="url(#paint80_linear_77_139)"/>
<rect width="10" height="242" rx="5" transform="matrix(-1 0 0 1 1754 131)" fill="url(#paint81_linear_77_139)"/>
<rect x="1616" y="151" width="10" height="242" rx="5" fill="url(#paint82_linear_77_139)"/>
<rect width="10" height="242" rx="5" transform="matrix(-1 0 0 1 1738 151)" fill="url(#paint83_linear_77_139)"/>
<rect x="1632" y="176" width="10" height="242" rx="5" fill="url(#paint84_linear_77_139)"/>
<rect width="10" height="242" rx="5" transform="matrix(-1 0 0 1 1722 171)" fill="url(#paint85_linear_77_139)"/>
<rect x="1648" y="216" width="10" height="242" rx="5" fill="url(#paint86_linear_77_139)"/>
<rect width="10" height="242" rx="5" transform="matrix(-1 0 0 1 1706 186)" fill="url(#paint87_linear_77_139)"/>
<rect x="1664" y="196" width="10" height="242" rx="5" fill="url(#paint88_linear_77_139)"/>
<rect x="1680" y="206" width="10" height="242" rx="5" fill="url(#paint89_linear_77_139)"/>
<rect x="480" y="95" width="10" height="242" rx="5" fill="url(#paint90_linear_77_139)"/>
<rect width="10" height="242" rx="5" transform="matrix(-1 0 0 1 634 95)" fill="url(#paint91_linear_77_139)"/>
<rect x="496" y="85" width="10" height="242" rx="5" fill="url(#paint92_linear_77_139)"/>
<rect width="10" height="242" rx="5" transform="matrix(-1 0 0 1 618 85)" fill="url(#paint93_linear_77_139)"/>
<rect x="512" y="75" width="10" height="242" rx="5" fill="url(#paint94_linear_77_139)"/>
<rect width="10" height="242" rx="5" transform="matrix(-1 0 0 1 602 75)" fill="url(#paint95_linear_77_139)"/>
<rect x="528" y="65" width="10" height="242" rx="5" fill="url(#paint96_linear_77_139)"/>
<rect width="10" height="242" rx="5" transform="matrix(-1 0 0 1 586 65)" fill="url(#paint97_linear_77_139)"/>
<rect x="544" y="55" width="10" height="242" rx="5" fill="url(#paint98_linear_77_139)"/>
<rect x="560" y="55" width="10" height="242" rx="5" fill="url(#paint99_linear_77_139)"/>
<rect x="1120" y="95" width="10" height="242" rx="5" fill="url(#paint100_linear_77_139)"/>
<rect width="10" height="242" rx="5" transform="matrix(-1 0 0 1 1274 95)" fill="url(#paint101_linear_77_139)"/>
<rect x="1136" y="85" width="10" height="242" rx="5" fill="url(#paint102_linear_77_139)"/>
<rect width="10" height="242" rx="5" transform="matrix(-1 0 0 1 1258 85)" fill="url(#paint103_linear_77_139)"/>
<rect x="1152" y="75" width="10" height="242" rx="5" fill="url(#paint104_linear_77_139)"/>
<rect width="10" height="242" rx="5" transform="matrix(-1 0 0 1 1242 75)" fill="url(#paint105_linear_77_139)"/>
<rect x="1168" y="65" width="10" height="242" rx="5" fill="url(#paint106_linear_77_139)"/>
<rect width="10" height="242" rx="5" transform="matrix(-1 0 0 1 1226 65)" fill="url(#paint107_linear_77_139)"/>
<rect x="1184" y="55" width="10" height="242" rx="5" fill="url(#paint108_linear_77_139)"/>
<rect x="1200" y="55" width="10" height="242" rx="5" fill="url(#paint109_linear_77_139)"/>
<rect x="1760" y="95" width="10" height="242" rx="5" fill="url(#paint110_linear_77_139)"/>
<rect width="10" height="242" rx="5" transform="matrix(-1 0 0 1 1914 95)" fill="url(#paint111_linear_77_139)"/>
<rect x="1776" y="85" width="10" height="242" rx="5" fill="url(#paint112_linear_77_139)"/>
<rect width="10" height="242" rx="5" transform="matrix(-1 0 0 1 1898 85)" fill="url(#paint113_linear_77_139)"/>
<rect x="1792" y="75" width="10" height="242" rx="5" fill="url(#paint114_linear_77_139)"/>
<rect width="10" height="242" rx="5" transform="matrix(-1 0 0 1 1882 75)" fill="url(#paint115_linear_77_139)"/>
<rect x="1808" y="65" width="10" height="242" rx="5" fill="url(#paint116_linear_77_139)"/>
<rect width="10" height="242" rx="5" transform="matrix(-1 0 0 1 1866 65)" fill="url(#paint117_linear_77_139)"/>
<rect x="1824" y="55" width="10" height="242" rx="5" fill="url(#paint118_linear_77_139)"/>
<rect x="1840" y="55" width="10" height="242" rx="5" fill="url(#paint119_linear_77_139)"/>
<defs>
<linearGradient id="paint0_linear_77_139" x1="5" y1="40" x2="5" y2="282" gradientUnits="userSpaceOnUse">
<stop stop-color="#3CBEC9"/>
<stop offset="1" stop-color="#D9D9D9" stop-opacity="0"/>
</linearGradient>
<linearGradient id="paint1_linear_77_139" x1="645" y1="85" x2="645" y2="327" gradientUnits="userSpaceOnUse">
<stop stop-color="#3CBEC9"/>
<stop offset="1" stop-color="#D9D9D9" stop-opacity="0"/>
</linearGradient>
<linearGradient id="paint2_linear_77_139" x1="1285" y1="85" x2="1285" y2="327" gradientUnits="userSpaceOnUse">
<stop stop-color="#3CBEC9"/>
<stop offset="1" stop-color="#D9D9D9" stop-opacity="0"/>
</linearGradient>
<linearGradient id="paint3_linear_77_139" x1="5" y1="0" x2="5" y2="242" gradientUnits="userSpaceOnUse">
<stop stop-color="#3CBEC9"/>
<stop offset="1" stop-color="#D9D9D9" stop-opacity="0"/>
</linearGradient>
<linearGradient id="paint4_linear_77_139" x1="5" y1="0" x2="5" y2="242" gradientUnits="userSpaceOnUse">
<stop stop-color="#3CBEC9"/>
<stop offset="1" stop-color="#D9D9D9" stop-opacity="0"/>
</linearGradient>
<linearGradient id="paint5_linear_77_139" x1="5" y1="0" x2="5" y2="242" gradientUnits="userSpaceOnUse">
<stop stop-color="#3CBEC9"/>
<stop offset="1" stop-color="#D9D9D9" stop-opacity="0"/>
</linearGradient>
<linearGradient id="paint6_linear_77_139" x1="21" y1="30" x2="21" y2="272" gradientUnits="userSpaceOnUse">
<stop stop-color="#3CBEC9"/>
<stop offset="1" stop-color="#D9D9D9" stop-opacity="0"/>
</linearGradient>
<linearGradient id="paint7_linear_77_139" x1="661" y1="65" x2="661" y2="307" gradientUnits="userSpaceOnUse">
<stop stop-color="#3CBEC9"/>
<stop offset="1" stop-color="#D9D9D9" stop-opacity="0"/>
</linearGradient>
<linearGradient id="paint8_linear_77_139" x1="1301" y1="65" x2="1301" y2="307" gradientUnits="userSpaceOnUse">
<stop stop-color="#3CBEC9"/>
<stop offset="1" stop-color="#D9D9D9" stop-opacity="0"/>
</linearGradient>
<linearGradient id="paint9_linear_77_139" x1="5" y1="0" x2="5" y2="242" gradientUnits="userSpaceOnUse">
<stop stop-color="#3CBEC9"/>
<stop offset="1" stop-color="#D9D9D9" stop-opacity="0"/>
</linearGradient>
<linearGradient id="paint10_linear_77_139" x1="5" y1="0" x2="5" y2="242" gradientUnits="userSpaceOnUse">
<stop stop-color="#3CBEC9"/>
<stop offset="1" stop-color="#D9D9D9" stop-opacity="0"/>
</linearGradient>
<linearGradient id="paint11_linear_77_139" x1="5" y1="0" x2="5" y2="242" gradientUnits="userSpaceOnUse">
<stop stop-color="#3CBEC9"/>
<stop offset="1" stop-color="#D9D9D9" stop-opacity="0"/>
</linearGradient>
<linearGradient id="paint12_linear_77_139" x1="37" y1="20" x2="37" y2="262" gradientUnits="userSpaceOnUse">
<stop stop-color="#3CBEC9"/>
<stop offset="1" stop-color="#D9D9D9" stop-opacity="0"/>
</linearGradient>
<linearGradient id="paint13_linear_77_139" x1="677" y1="50" x2="677" y2="292" gradientUnits="userSpaceOnUse">
<stop stop-color="#3CBEC9"/>
<stop offset="1" stop-color="#D9D9D9" stop-opacity="0"/>
</linearGradient>
<linearGradient id="paint14_linear_77_139" x1="1317" y1="50" x2="1317" y2="292" gradientUnits="userSpaceOnUse">
<stop stop-color="#3CBEC9"/>
<stop offset="1" stop-color="#D9D9D9" stop-opacity="0"/>
</linearGradient>
<linearGradient id="paint15_linear_77_139" x1="5" y1="0" x2="5" y2="242" gradientUnits="userSpaceOnUse">
<stop stop-color="#3CBEC9"/>
<stop offset="1" stop-color="#D9D9D9" stop-opacity="0"/>
</linearGradient>
<linearGradient id="paint16_linear_77_139" x1="5" y1="0" x2="5" y2="242" gradientUnits="userSpaceOnUse">
<stop stop-color="#3CBEC9"/>
<stop offset="1" stop-color="#D9D9D9" stop-opacity="0"/>
</linearGradient>
<linearGradient id="paint17_linear_77_139" x1="5" y1="0" x2="5" y2="242" gradientUnits="userSpaceOnUse">
<stop stop-color="#3CBEC9"/>
<stop offset="1" stop-color="#D9D9D9" stop-opacity="0"/>
</linearGradient>
<linearGradient id="paint18_linear_77_139" x1="53" y1="10" x2="53" y2="252" gradientUnits="userSpaceOnUse">
<stop stop-color="#3CBEC9"/>
<stop offset="1" stop-color="#D9D9D9" stop-opacity="0"/>
</linearGradient>
<linearGradient id="paint19_linear_77_139" x1="693" y1="30" x2="693" y2="272" gradientUnits="userSpaceOnUse">
<stop stop-color="#3CBEC9"/>
<stop offset="1" stop-color="#D9D9D9" stop-opacity="0"/>
</linearGradient>
<linearGradient id="paint20_linear_77_139" x1="1333" y1="30" x2="1333" y2="272" gradientUnits="userSpaceOnUse">
<stop stop-color="#3CBEC9"/>
<stop offset="1" stop-color="#D9D9D9" stop-opacity="0"/>
</linearGradient>
<linearGradient id="paint21_linear_77_139" x1="5" y1="0" x2="5" y2="242" gradientUnits="userSpaceOnUse">
<stop stop-color="#3CBEC9"/>
<stop offset="1" stop-color="#D9D9D9" stop-opacity="0"/>
</linearGradient>
<linearGradient id="paint22_linear_77_139" x1="5" y1="0" x2="5" y2="242" gradientUnits="userSpaceOnUse">
<stop stop-color="#3CBEC9"/>
<stop offset="1" stop-color="#D9D9D9" stop-opacity="0"/>
</linearGradient>
<linearGradient id="paint23_linear_77_139" x1="5" y1="0" x2="5" y2="242" gradientUnits="userSpaceOnUse">
<stop stop-color="#3CBEC9"/>
<stop offset="1" stop-color="#D9D9D9" stop-opacity="0"/>
</linearGradient>
<linearGradient id="paint24_linear_77_139" x1="69" y1="0" x2="69" y2="242" gradientUnits="userSpaceOnUse">
<stop stop-color="#3CBEC9"/>
<stop offset="1" stop-color="#D9D9D9" stop-opacity="0"/>
</linearGradient>
<linearGradient id="paint25_linear_77_139" x1="709" y1="10" x2="709" y2="252" gradientUnits="userSpaceOnUse">
<stop stop-color="#3CBEC9"/>
<stop offset="1" stop-color="#D9D9D9" stop-opacity="0"/>
</linearGradient>
<linearGradient id="paint26_linear_77_139" x1="1349" y1="10" x2="1349" y2="252" gradientUnits="userSpaceOnUse">
<stop stop-color="#3CBEC9"/>
<stop offset="1" stop-color="#D9D9D9" stop-opacity="0"/>
</linearGradient>
<linearGradient id="paint27_linear_77_139" x1="85" y1="0" x2="85" y2="242" gradientUnits="userSpaceOnUse">
<stop stop-color="#3CBEC9"/>
<stop offset="1" stop-color="#D9D9D9" stop-opacity="0"/>
</linearGradient>
<linearGradient id="paint28_linear_77_139" x1="725" y1="0" x2="725" y2="242" gradientUnits="userSpaceOnUse">
<stop stop-color="#3CBEC9"/>
<stop offset="1" stop-color="#D9D9D9" stop-opacity="0"/>
</linearGradient>
<linearGradient id="paint29_linear_77_139" x1="1365" y1="0" x2="1365" y2="242" gradientUnits="userSpaceOnUse">
<stop stop-color="#3CBEC9"/>
<stop offset="1" stop-color="#D9D9D9" stop-opacity="0"/>
</linearGradient>
<linearGradient id="paint30_linear_77_139" x1="165" y1="58" x2="165" y2="300" gradientUnits="userSpaceOnUse">
<stop stop-color="#3CBEC9"/>
<stop offset="1" stop-color="#D9D9D9" stop-opacity="0"/>
</linearGradient>
<linearGradient id="paint31_linear_77_139" x1="5" y1="0" x2="5" y2="242" gradientUnits="userSpaceOnUse">
<stop stop-color="#3CBEC9"/>
<stop offset="1" stop-color="#D9D9D9" stop-opacity="0"/>
</linearGradient>
<linearGradient id="paint32_linear_77_139" x1="181" y1="77" x2="181" y2="319" gradientUnits="userSpaceOnUse">
<stop stop-color="#3CBEC9"/>
<stop offset="1" stop-color="#D9D9D9" stop-opacity="0"/>
</linearGradient>
<linearGradient id="paint33_linear_77_139" x1="5" y1="0" x2="5" y2="242" gradientUnits="userSpaceOnUse">
<stop stop-color="#3CBEC9"/>
<stop offset="1" stop-color="#D9D9D9" stop-opacity="0"/>
</linearGradient>
<linearGradient id="paint34_linear_77_139" x1="197" y1="106" x2="197" y2="348" gradientUnits="userSpaceOnUse">
<stop stop-color="#3CBEC9"/>
<stop offset="1" stop-color="#D9D9D9" stop-opacity="0"/>
</linearGradient>
<linearGradient id="paint35_linear_77_139" x1="5" y1="0" x2="5" y2="242" gradientUnits="userSpaceOnUse">
<stop stop-color="#3CBEC9"/>
<stop offset="1" stop-color="#D9D9D9" stop-opacity="0"/>
</linearGradient>
<linearGradient id="paint36_linear_77_139" x1="213" y1="95" x2="213" y2="337" gradientUnits="userSpaceOnUse">
<stop stop-color="#3CBEC9"/>
<stop offset="1" stop-color="#D9D9D9" stop-opacity="0"/>
</linearGradient>
<linearGradient id="paint37_linear_77_139" x1="5" y1="0" x2="5" y2="242" gradientUnits="userSpaceOnUse">
<stop stop-color="#3CBEC9"/>
<stop offset="1" stop-color="#D9D9D9" stop-opacity="0"/>
</linearGradient>
<linearGradient id="paint38_linear_77_139" x1="229" y1="65" x2="229" y2="307" gradientUnits="userSpaceOnUse">
<stop stop-color="#3CBEC9"/>
<stop offset="1" stop-color="#D9D9D9" stop-opacity="0"/>
</linearGradient>
<linearGradient id="paint39_linear_77_139" x1="245" y1="60" x2="245" y2="302" gradientUnits="userSpaceOnUse">
<stop stop-color="#3CBEC9"/>
<stop offset="1" stop-color="#D9D9D9" stop-opacity="0"/>
</linearGradient>
<linearGradient id="paint40_linear_77_139" x1="805" y1="40" x2="805" y2="282" gradientUnits="userSpaceOnUse">
<stop stop-color="#3CBEC9"/>
<stop offset="1" stop-color="#D9D9D9" stop-opacity="0"/>
</linearGradient>
<linearGradient id="paint41_linear_77_139" x1="5" y1="0" x2="5" y2="242" gradientUnits="userSpaceOnUse">
<stop stop-color="#3CBEC9"/>
<stop offset="1" stop-color="#D9D9D9" stop-opacity="0"/>
</linearGradient>
<linearGradient id="paint42_linear_77_139" x1="821" y1="60" x2="821" y2="302" gradientUnits="userSpaceOnUse">
<stop stop-color="#3CBEC9"/>
<stop offset="1" stop-color="#D9D9D9" stop-opacity="0"/>
</linearGradient>
<linearGradient id="paint43_linear_77_139" x1="5" y1="0" x2="5" y2="242" gradientUnits="userSpaceOnUse">
<stop stop-color="#3CBEC9"/>
<stop offset="1" stop-color="#D9D9D9" stop-opacity="0"/>
</linearGradient>
<linearGradient id="paint44_linear_77_139" x1="837" y1="65" x2="837" y2="307" gradientUnits="userSpaceOnUse">
<stop stop-color="#3CBEC9"/>
<stop offset="1" stop-color="#D9D9D9" stop-opacity="0"/>
</linearGradient>
<linearGradient id="paint45_linear_77_139" x1="5" y1="0" x2="5" y2="242" gradientUnits="userSpaceOnUse">
<stop stop-color="#3CBEC9"/>
<stop offset="1" stop-color="#D9D9D9" stop-opacity="0"/>
</linearGradient>
<linearGradient id="paint46_linear_77_139" x1="853" y1="75" x2="853" y2="317" gradientUnits="userSpaceOnUse">
<stop stop-color="#3CBEC9"/>
<stop offset="1" stop-color="#D9D9D9" stop-opacity="0"/>
</linearGradient>
<linearGradient id="paint47_linear_77_139" x1="5" y1="0" x2="5" y2="242" gradientUnits="userSpaceOnUse">
<stop stop-color="#3CBEC9"/>
<stop offset="1" stop-color="#D9D9D9" stop-opacity="0"/>
</linearGradient>
<linearGradient id="paint48_linear_77_139" x1="869" y1="65" x2="869" y2="307" gradientUnits="userSpaceOnUse">
<stop stop-color="#3CBEC9"/>
<stop offset="1" stop-color="#D9D9D9" stop-opacity="0"/>
</linearGradient>
<linearGradient id="paint49_linear_77_139" x1="885" y1="60" x2="885" y2="302" gradientUnits="userSpaceOnUse">
<stop stop-color="#3CBEC9"/>
<stop offset="1" stop-color="#D9D9D9" stop-opacity="0"/>
</linearGradient>
<linearGradient id="paint50_linear_77_139" x1="1445" y1="40" x2="1445" y2="282" gradientUnits="userSpaceOnUse">
<stop stop-color="#3CBEC9"/>
<stop offset="1" stop-color="#D9D9D9" stop-opacity="0"/>
</linearGradient>
<linearGradient id="paint51_linear_77_139" x1="5" y1="0" x2="5" y2="242" gradientUnits="userSpaceOnUse">
<stop stop-color="#3CBEC9"/>
<stop offset="1" stop-color="#D9D9D9" stop-opacity="0"/>
</linearGradient>
<linearGradient id="paint52_linear_77_139" x1="1461" y1="60" x2="1461" y2="302" gradientUnits="userSpaceOnUse">
<stop stop-color="#3CBEC9"/>
<stop offset="1" stop-color="#D9D9D9" stop-opacity="0"/>
</linearGradient>
<linearGradient id="paint53_linear_77_139" x1="5" y1="0" x2="5" y2="242" gradientUnits="userSpaceOnUse">
<stop stop-color="#3CBEC9"/>
<stop offset="1" stop-color="#D9D9D9" stop-opacity="0"/>
</linearGradient>
<linearGradient id="paint54_linear_77_139" x1="1477" y1="65" x2="1477" y2="307" gradientUnits="userSpaceOnUse">
<stop stop-color="#3CBEC9"/>
<stop offset="1" stop-color="#D9D9D9" stop-opacity="0"/>
</linearGradient>
<linearGradient id="paint55_linear_77_139" x1="5" y1="0" x2="5" y2="242" gradientUnits="userSpaceOnUse">
<stop stop-color="#3CBEC9"/>
<stop offset="1" stop-color="#D9D9D9" stop-opacity="0"/>
</linearGradient>
<linearGradient id="paint56_linear_77_139" x1="1493" y1="75" x2="1493" y2="317" gradientUnits="userSpaceOnUse">
<stop stop-color="#3CBEC9"/>
<stop offset="1" stop-color="#D9D9D9" stop-opacity="0"/>
</linearGradient>
<linearGradient id="paint57_linear_77_139" x1="5" y1="0" x2="5" y2="242" gradientUnits="userSpaceOnUse">
<stop stop-color="#3CBEC9"/>
<stop offset="1" stop-color="#D9D9D9" stop-opacity="0"/>
</linearGradient>
<linearGradient id="paint58_linear_77_139" x1="1509" y1="65" x2="1509" y2="307" gradientUnits="userSpaceOnUse">
<stop stop-color="#3CBEC9"/>
<stop offset="1" stop-color="#D9D9D9" stop-opacity="0"/>
</linearGradient>
<linearGradient id="paint59_linear_77_139" x1="1525" y1="60" x2="1525" y2="302" gradientUnits="userSpaceOnUse">
<stop stop-color="#3CBEC9"/>
<stop offset="1" stop-color="#D9D9D9" stop-opacity="0"/>
</linearGradient>
<linearGradient id="paint60_linear_77_139" x1="325" y1="106" x2="325" y2="348" gradientUnits="userSpaceOnUse">
<stop stop-color="#3CBEC9"/>
<stop offset="1" stop-color="#D9D9D9" stop-opacity="0"/>
</linearGradient>
<linearGradient id="paint61_linear_77_139" x1="5" y1="0" x2="5" y2="242" gradientUnits="userSpaceOnUse">
<stop stop-color="#3CBEC9"/>
<stop offset="1" stop-color="#D9D9D9" stop-opacity="0"/>
</linearGradient>
<linearGradient id="paint62_linear_77_139" x1="341" y1="151" x2="341" y2="393" gradientUnits="userSpaceOnUse">
<stop stop-color="#3CBEC9"/>
<stop offset="1" stop-color="#D9D9D9" stop-opacity="0"/>
</linearGradient>
<linearGradient id="paint63_linear_77_139" x1="5" y1="0" x2="5" y2="242" gradientUnits="userSpaceOnUse">
<stop stop-color="#3CBEC9"/>
<stop offset="1" stop-color="#D9D9D9" stop-opacity="0"/>
</linearGradient>
<linearGradient id="paint64_linear_77_139" x1="357" y1="176" x2="357" y2="418" gradientUnits="userSpaceOnUse">
<stop stop-color="#3CBEC9"/>
<stop offset="1" stop-color="#D9D9D9" stop-opacity="0"/>
</linearGradient>
<linearGradient id="paint65_linear_77_139" x1="5" y1="0" x2="5" y2="242" gradientUnits="userSpaceOnUse">
<stop stop-color="#3CBEC9"/>
<stop offset="1" stop-color="#D9D9D9" stop-opacity="0"/>
</linearGradient>
<linearGradient id="paint66_linear_77_139" x1="373" y1="216" x2="373" y2="458" gradientUnits="userSpaceOnUse">
<stop stop-color="#3CBEC9"/>
<stop offset="1" stop-color="#D9D9D9" stop-opacity="0"/>
</linearGradient>
<linearGradient id="paint67_linear_77_139" x1="5" y1="0" x2="5" y2="242" gradientUnits="userSpaceOnUse">
<stop stop-color="#3CBEC9"/>
<stop offset="1" stop-color="#D9D9D9" stop-opacity="0"/>
</linearGradient>
<linearGradient id="paint68_linear_77_139" x1="389" y1="196" x2="389" y2="438" gradientUnits="userSpaceOnUse">
<stop stop-color="#3CBEC9"/>
<stop offset="1" stop-color="#D9D9D9" stop-opacity="0"/>
</linearGradient>
<linearGradient id="paint69_linear_77_139" x1="405" y1="206" x2="405" y2="448" gradientUnits="userSpaceOnUse">
<stop stop-color="#3CBEC9"/>
<stop offset="1" stop-color="#D9D9D9" stop-opacity="0"/>
</linearGradient>
<linearGradient id="paint70_linear_77_139" x1="965" y1="106" x2="965" y2="348" gradientUnits="userSpaceOnUse">
<stop stop-color="#3CBEC9"/>
<stop offset="1" stop-color="#D9D9D9" stop-opacity="0"/>
</linearGradient>
<linearGradient id="paint71_linear_77_139" x1="5" y1="0" x2="5" y2="242" gradientUnits="userSpaceOnUse">
<stop stop-color="#3CBEC9"/>
<stop offset="1" stop-color="#D9D9D9" stop-opacity="0"/>
</linearGradient>
<linearGradient id="paint72_linear_77_139" x1="981" y1="151" x2="981" y2="393" gradientUnits="userSpaceOnUse">
<stop stop-color="#3CBEC9"/>
<stop offset="1" stop-color="#D9D9D9" stop-opacity="0"/>
</linearGradient>
<linearGradient id="paint73_linear_77_139" x1="5" y1="0" x2="5" y2="242" gradientUnits="userSpaceOnUse">
<stop stop-color="#3CBEC9"/>
<stop offset="1" stop-color="#D9D9D9" stop-opacity="0"/>
</linearGradient>
<linearGradient id="paint74_linear_77_139" x1="997" y1="176" x2="997" y2="418" gradientUnits="userSpaceOnUse">
<stop stop-color="#3CBEC9"/>
<stop offset="1" stop-color="#D9D9D9" stop-opacity="0"/>
</linearGradient>
<linearGradient id="paint75_linear_77_139" x1="5" y1="0" x2="5" y2="242" gradientUnits="userSpaceOnUse">
<stop stop-color="#3CBEC9"/>
<stop offset="1" stop-color="#D9D9D9" stop-opacity="0"/>
</linearGradient>
<linearGradient id="paint76_linear_77_139" x1="1013" y1="216" x2="1013" y2="458" gradientUnits="userSpaceOnUse">
<stop stop-color="#3CBEC9"/>
<stop offset="1" stop-color="#D9D9D9" stop-opacity="0"/>
</linearGradient>
<linearGradient id="paint77_linear_77_139" x1="5" y1="0" x2="5" y2="242" gradientUnits="userSpaceOnUse">
<stop stop-color="#3CBEC9"/>
<stop offset="1" stop-color="#D9D9D9" stop-opacity="0"/>
</linearGradient>
<linearGradient id="paint78_linear_77_139" x1="1029" y1="196" x2="1029" y2="438" gradientUnits="userSpaceOnUse">
<stop stop-color="#3CBEC9"/>
<stop offset="1" stop-color="#D9D9D9" stop-opacity="0"/>
</linearGradient>
<linearGradient id="paint79_linear_77_139" x1="1045" y1="206" x2="1045" y2="448" gradientUnits="userSpaceOnUse">
<stop stop-color="#3CBEC9"/>
<stop offset="1" stop-color="#D9D9D9" stop-opacity="0"/>
</linearGradient>
<linearGradient id="paint80_linear_77_139" x1="1605" y1="106" x2="1605" y2="348" gradientUnits="userSpaceOnUse">
<stop stop-color="#3CBEC9"/>
<stop offset="1" stop-color="#D9D9D9" stop-opacity="0"/>
</linearGradient>
<linearGradient id="paint81_linear_77_139" x1="5" y1="0" x2="5" y2="242" gradientUnits="userSpaceOnUse">
<stop stop-color="#3CBEC9"/>
<stop offset="1" stop-color="#D9D9D9" stop-opacity="0"/>
</linearGradient>
<linearGradient id="paint82_linear_77_139" x1="1621" y1="151" x2="1621" y2="393" gradientUnits="userSpaceOnUse">
<stop stop-color="#3CBEC9"/>
<stop offset="1" stop-color="#D9D9D9" stop-opacity="0"/>
</linearGradient>
<linearGradient id="paint83_linear_77_139" x1="5" y1="0" x2="5" y2="242" gradientUnits="userSpaceOnUse">
<stop stop-color="#3CBEC9"/>
<stop offset="1" stop-color="#D9D9D9" stop-opacity="0"/>
</linearGradient>
<linearGradient id="paint84_linear_77_139" x1="1637" y1="176" x2="1637" y2="418" gradientUnits="userSpaceOnUse">
<stop stop-color="#3CBEC9"/>
<stop offset="1" stop-color="#D9D9D9" stop-opacity="0"/>
</linearGradient>
<linearGradient id="paint85_linear_77_139" x1="5" y1="0" x2="5" y2="242" gradientUnits="userSpaceOnUse">
<stop stop-color="#3CBEC9"/>
<stop offset="1" stop-color="#D9D9D9" stop-opacity="0"/>
</linearGradient>
<linearGradient id="paint86_linear_77_139" x1="1653" y1="216" x2="1653" y2="458" gradientUnits="userSpaceOnUse">
<stop stop-color="#3CBEC9"/>
<stop offset="1" stop-color="#D9D9D9" stop-opacity="0"/>
</linearGradient>
<linearGradient id="paint87_linear_77_139" x1="5" y1="0" x2="5" y2="242" gradientUnits="userSpaceOnUse">
<stop stop-color="#3CBEC9"/>
<stop offset="1" stop-color="#D9D9D9" stop-opacity="0"/>
</linearGradient>
<linearGradient id="paint88_linear_77_139" x1="1669" y1="196" x2="1669" y2="438" gradientUnits="userSpaceOnUse">
<stop stop-color="#3CBEC9"/>
<stop offset="1" stop-color="#D9D9D9" stop-opacity="0"/>
</linearGradient>
<linearGradient id="paint89_linear_77_139" x1="1685" y1="206" x2="1685" y2="448" gradientUnits="userSpaceOnUse">
<stop stop-color="#3CBEC9"/>
<stop offset="1" stop-color="#D9D9D9" stop-opacity="0"/>
</linearGradient>
<linearGradient id="paint90_linear_77_139" x1="485" y1="95" x2="485" y2="337" gradientUnits="userSpaceOnUse">
<stop stop-color="#3CBEC9"/>
<stop offset="1" stop-color="#D9D9D9" stop-opacity="0"/>
</linearGradient>
<linearGradient id="paint91_linear_77_139" x1="5" y1="0" x2="5" y2="242" gradientUnits="userSpaceOnUse">
<stop stop-color="#3CBEC9"/>
<stop offset="1" stop-color="#D9D9D9" stop-opacity="0"/>
</linearGradient>
<linearGradient id="paint92_linear_77_139" x1="501" y1="85" x2="501" y2="327" gradientUnits="userSpaceOnUse">
<stop stop-color="#3CBEC9"/>
<stop offset="1" stop-color="#D9D9D9" stop-opacity="0"/>
</linearGradient>
<linearGradient id="paint93_linear_77_139" x1="5" y1="0" x2="5" y2="242" gradientUnits="userSpaceOnUse">
<stop stop-color="#3CBEC9"/>
<stop offset="1" stop-color="#D9D9D9" stop-opacity="0"/>
</linearGradient>
<linearGradient id="paint94_linear_77_139" x1="517" y1="75" x2="517" y2="317" gradientUnits="userSpaceOnUse">
<stop stop-color="#3CBEC9"/>
<stop offset="1" stop-color="#D9D9D9" stop-opacity="0"/>
</linearGradient>
<linearGradient id="paint95_linear_77_139" x1="5" y1="0" x2="5" y2="242" gradientUnits="userSpaceOnUse">
<stop stop-color="#3CBEC9"/>
<stop offset="1" stop-color="#D9D9D9" stop-opacity="0"/>
</linearGradient>
<linearGradient id="paint96_linear_77_139" x1="533" y1="65" x2="533" y2="307" gradientUnits="userSpaceOnUse">
<stop stop-color="#3CBEC9"/>
<stop offset="1" stop-color="#D9D9D9" stop-opacity="0"/>
</linearGradient>
<linearGradient id="paint97_linear_77_139" x1="5" y1="0" x2="5" y2="242" gradientUnits="userSpaceOnUse">
<stop stop-color="#3CBEC9"/>
<stop offset="1" stop-color="#D9D9D9" stop-opacity="0"/>
</linearGradient>
<linearGradient id="paint98_linear_77_139" x1="549" y1="55" x2="549" y2="297" gradientUnits="userSpaceOnUse">
<stop stop-color="#3CBEC9"/>
<stop offset="1" stop-color="#D9D9D9" stop-opacity="0"/>
</linearGradient>
<linearGradient id="paint99_linear_77_139" x1="565" y1="55" x2="565" y2="297" gradientUnits="userSpaceOnUse">
<stop stop-color="#3CBEC9"/>
<stop offset="1" stop-color="#D9D9D9" stop-opacity="0"/>
</linearGradient>
<linearGradient id="paint100_linear_77_139" x1="1125" y1="95" x2="1125" y2="337" gradientUnits="userSpaceOnUse">
<stop stop-color="#3CBEC9"/>
<stop offset="1" stop-color="#D9D9D9" stop-opacity="0"/>
</linearGradient>
<linearGradient id="paint101_linear_77_139" x1="5" y1="0" x2="5" y2="242" gradientUnits="userSpaceOnUse">
<stop stop-color="#3CBEC9"/>
<stop offset="1" stop-color="#D9D9D9" stop-opacity="0"/>
</linearGradient>
<linearGradient id="paint102_linear_77_139" x1="1141" y1="85" x2="1141" y2="327" gradientUnits="userSpaceOnUse">
<stop stop-color="#3CBEC9"/>
<stop offset="1" stop-color="#D9D9D9" stop-opacity="0"/>
</linearGradient>
<linearGradient id="paint103_linear_77_139" x1="5" y1="0" x2="5" y2="242" gradientUnits="userSpaceOnUse">
<stop stop-color="#3CBEC9"/>
<stop offset="1" stop-color="#D9D9D9" stop-opacity="0"/>
</linearGradient>
<linearGradient id="paint104_linear_77_139" x1="1157" y1="75" x2="1157" y2="317" gradientUnits="userSpaceOnUse">
<stop stop-color="#3CBEC9"/>
<stop offset="1" stop-color="#D9D9D9" stop-opacity="0"/>
</linearGradient>
<linearGradient id="paint105_linear_77_139" x1="5" y1="0" x2="5" y2="242" gradientUnits="userSpaceOnUse">
<stop stop-color="#3CBEC9"/>
<stop offset="1" stop-color="#D9D9D9" stop-opacity="0"/>
</linearGradient>
<linearGradient id="paint106_linear_77_139" x1="1173" y1="65" x2="1173" y2="307" gradientUnits="userSpaceOnUse">
<stop stop-color="#3CBEC9"/>
<stop offset="1" stop-color="#D9D9D9" stop-opacity="0"/>
</linearGradient>
<linearGradient id="paint107_linear_77_139" x1="5" y1="0" x2="5" y2="242" gradientUnits="userSpaceOnUse">
<stop stop-color="#3CBEC9"/>
<stop offset="1" stop-color="#D9D9D9" stop-opacity="0"/>
</linearGradient>
<linearGradient id="paint108_linear_77_139" x1="1189" y1="55" x2="1189" y2="297" gradientUnits="userSpaceOnUse">
<stop stop-color="#3CBEC9"/>
<stop offset="1" stop-color="#D9D9D9" stop-opacity="0"/>
</linearGradient>
<linearGradient id="paint109_linear_77_139" x1="1205" y1="55" x2="1205" y2="297" gradientUnits="userSpaceOnUse">
<stop stop-color="#3CBEC9"/>
<stop offset="1" stop-color="#D9D9D9" stop-opacity="0"/>
</linearGradient>
<linearGradient id="paint110_linear_77_139" x1="1765" y1="95" x2="1765" y2="337" gradientUnits="userSpaceOnUse">
<stop stop-color="#3CBEC9"/>
<stop offset="1" stop-color="#D9D9D9" stop-opacity="0"/>
</linearGradient>
<linearGradient id="paint111_linear_77_139" x1="5" y1="0" x2="5" y2="242" gradientUnits="userSpaceOnUse">
<stop stop-color="#3CBEC9"/>
<stop offset="1" stop-color="#D9D9D9" stop-opacity="0"/>
</linearGradient>
<linearGradient id="paint112_linear_77_139" x1="1781" y1="85" x2="1781" y2="327" gradientUnits="userSpaceOnUse">
<stop stop-color="#3CBEC9"/>
<stop offset="1" stop-color="#D9D9D9" stop-opacity="0"/>
</linearGradient>
<linearGradient id="paint113_linear_77_139" x1="5" y1="0" x2="5" y2="242" gradientUnits="userSpaceOnUse">
<stop stop-color="#3CBEC9"/>
<stop offset="1" stop-color="#D9D9D9" stop-opacity="0"/>
</linearGradient>
<linearGradient id="paint114_linear_77_139" x1="1797" y1="75" x2="1797" y2="317" gradientUnits="userSpaceOnUse">
<stop stop-color="#3CBEC9"/>
<stop offset="1" stop-color="#D9D9D9" stop-opacity="0"/>
</linearGradient>
<linearGradient id="paint115_linear_77_139" x1="5" y1="0" x2="5" y2="242" gradientUnits="userSpaceOnUse">
<stop stop-color="#3CBEC9"/>
<stop offset="1" stop-color="#D9D9D9" stop-opacity="0"/>
</linearGradient>
<linearGradient id="paint116_linear_77_139" x1="1813" y1="65" x2="1813" y2="307" gradientUnits="userSpaceOnUse">
<stop stop-color="#3CBEC9"/>
<stop offset="1" stop-color="#D9D9D9" stop-opacity="0"/>
</linearGradient>
<linearGradient id="paint117_linear_77_139" x1="5" y1="0" x2="5" y2="242" gradientUnits="userSpaceOnUse">
<stop stop-color="#3CBEC9"/>
<stop offset="1" stop-color="#D9D9D9" stop-opacity="0"/>
</linearGradient>
<linearGradient id="paint118_linear_77_139" x1="1829" y1="55" x2="1829" y2="297" gradientUnits="userSpaceOnUse">
<stop stop-color="#3CBEC9"/>
<stop offset="1" stop-color="#D9D9D9" stop-opacity="0"/>
</linearGradient>
<linearGradient id="paint119_linear_77_139" x1="1845" y1="55" x2="1845" y2="297" gradientUnits="userSpaceOnUse">
<stop stop-color="#3CBEC9"/>
<stop offset="1" stop-color="#D9D9D9" stop-opacity="0"/>
</linearGradient>
</defs>
</svg>
